<svg width="250" height="27" viewBox="0 0 250 27" fill="none" xmlns="http://www.w3.org/2000/svg">
<path d="M71.7192 11.631C71.3811 9.11289 69.3524 7.55578 65.9 7.55578C62.4032 7.55578 60.0987 9.17518 60.1076 11.8089C60.0987 13.8554 61.3889 15.1812 64.0582 15.7151L66.425 16.1866C67.6173 16.4269 68.1601 16.8629 68.1779 17.548C68.1601 18.3577 67.2792 18.9361 65.9534 18.9361C64.601 18.9361 63.7023 18.3577 63.4709 17.2455L59.7428 17.4412C60.0987 20.0572 62.3231 21.6677 65.9445 21.6677C69.4858 21.6677 72.0217 19.8614 72.0306 17.1654C72.0217 15.1901 70.7315 14.0067 68.08 13.4639L65.6064 12.9656C64.334 12.6898 63.8624 12.2538 63.8713 11.5954C63.8624 10.7768 64.7878 10.2429 65.9623 10.2429C67.2792 10.2429 68.0622 10.9636 68.2491 11.8445L71.7192 11.631Z" fill="#F8F8F8"/>
<path d="M74.4175 26.5259H78.2079V19.2119H78.3236C78.8486 20.3508 79.9964 21.6232 82.203 21.6232C85.3172 21.6232 87.7463 19.1585 87.7463 14.585C87.7463 9.887 85.2105 7.55578 82.2119 7.55578C79.9252 7.55578 78.8308 8.91714 78.3236 10.0294H78.1545V7.73373H74.4175V26.5259ZM78.1278 14.5672C78.1278 12.1292 79.16 10.5721 81.0018 10.5721C82.8793 10.5721 83.8758 12.2004 83.8758 14.5672C83.8758 16.9518 82.8615 18.6068 81.0018 18.6068C79.1778 18.6068 78.1278 17.0052 78.1278 14.5672Z" fill="#F8F8F8"/>
<path d="M94.1705 21.6588C96.1903 21.6588 97.4983 20.7779 98.1657 19.5055H98.2724V21.4007H101.867V12.1826C101.867 8.92604 99.1088 7.55578 96.0658 7.55578C92.7914 7.55578 90.6381 9.12179 90.1132 11.6132L93.6189 11.8979C93.8769 10.9903 94.6866 10.323 96.048 10.323C97.3382 10.323 98.0767 10.9725 98.0767 12.0937V12.147C98.0767 13.0279 97.1424 13.1436 94.7667 13.3749C92.0618 13.6241 89.6327 14.5316 89.6327 17.5836C89.6327 20.2885 91.5635 21.6588 94.1705 21.6588ZM95.2561 19.0428C94.0905 19.0428 93.2541 18.5001 93.2541 17.459C93.2541 16.3913 94.135 15.8663 95.4696 15.6795C96.2971 15.5638 97.6496 15.368 98.1034 15.0655V16.5159C98.1034 17.9484 96.92 19.0428 95.2561 19.0428Z" fill="#F8F8F8"/>
<path d="M110.983 21.6677C114.622 21.6677 116.909 19.5322 117.087 16.3913H113.51C113.287 17.8505 112.326 18.6691 111.027 18.6691C109.257 18.6691 108.109 17.1832 108.109 14.5672C108.109 11.9869 109.266 10.5098 111.027 10.5098C112.415 10.5098 113.305 11.4263 113.51 12.7877H117.087C116.927 9.62897 114.533 7.55578 110.965 7.55578C106.819 7.55578 104.256 10.4298 104.256 14.6206C104.256 18.7759 106.774 21.6677 110.983 21.6677Z" fill="#F8F8F8"/>
<path d="M125.742 21.6677C129.123 21.6677 131.401 20.0216 131.935 17.4857L128.429 17.2544C128.047 18.2954 127.068 18.8382 125.804 18.8382C123.909 18.8382 122.708 17.5836 122.708 15.546V15.5371H132.015V14.4961C132.015 9.85141 129.203 7.55578 125.591 7.55578C121.569 7.55578 118.962 10.412 118.962 14.6295C118.962 18.9627 121.533 21.6677 125.742 21.6677ZM122.708 13.1881C122.788 11.631 123.971 10.3853 125.653 10.3853C127.299 10.3853 128.438 11.5598 128.447 13.1881H122.708Z" fill="#F8F8F8"/>
<path d="M141.758 7.73373H139.187V4.45935H135.396V7.73373H133.528V10.581H135.396V17.6993C135.378 20.3775 137.202 21.7033 139.952 21.5876C140.931 21.552 141.625 21.3563 142.007 21.2317L141.411 18.4111C141.224 18.4467 140.824 18.5357 140.468 18.5357C139.712 18.5357 139.187 18.2509 139.187 17.201V10.581H141.758V7.73373Z" fill="#F8F8F8"/>
<path d="M144.227 21.4007H148.018V13.6686C148.018 11.9869 149.246 10.8302 150.918 10.8302C151.443 10.8302 152.164 10.9191 152.52 11.0348V7.67145C152.182 7.59137 151.71 7.53798 151.328 7.53798C149.797 7.53798 148.543 8.42776 148.044 10.1183H147.902V7.73373H144.227V21.4007Z" fill="#F8F8F8"/>
<path d="M157.986 21.6588C160.005 21.6588 161.313 20.7779 161.981 19.5055H162.087V21.4007H165.682V12.1826C165.682 8.92604 162.924 7.55578 159.881 7.55578C156.606 7.55578 154.453 9.12179 153.928 11.6132L157.434 11.8979C157.692 10.9903 158.502 10.323 159.863 10.323C161.153 10.323 161.892 10.9725 161.892 12.0937V12.147C161.892 13.0279 160.957 13.1436 158.582 13.3749C155.877 13.6241 153.448 14.5316 153.448 17.5836C153.448 20.2885 155.378 21.6588 157.986 21.6588ZM159.071 19.0428C157.905 19.0428 157.069 18.5001 157.069 17.459C157.069 16.3913 157.95 15.8663 159.285 15.6795C160.112 15.5638 161.465 15.368 161.918 15.0655V16.5159C161.918 17.9484 160.735 19.0428 159.071 19.0428Z" fill="#F8F8F8"/>
<path d="M180.875 7.73373H176.862L174.033 17.5124H173.89L171.052 7.73373H167.048L171.826 21.4007H176.097L180.875 7.73373Z" fill="#F8F8F8"/>
<path d="M188.578 21.6677C191.96 21.6677 194.237 20.0216 194.771 17.4857L191.265 17.2544C190.883 18.2954 189.904 18.8382 188.641 18.8382C186.745 18.8382 185.544 17.5836 185.544 15.546V15.5371H194.851V14.4961C194.851 9.85141 192.04 7.55578 188.427 7.55578C184.405 7.55578 181.798 10.412 181.798 14.6295C181.798 18.9627 184.37 21.6677 188.578 21.6677ZM185.544 13.1881C185.624 11.631 186.808 10.3853 188.489 10.3853C190.135 10.3853 191.274 11.5598 191.283 13.1881H185.544Z" fill="#F8F8F8"/>
<path d="M201.115 3.17807H197.325V21.4007H201.115V3.17807Z" fill="#F8F8F8"/>
<path d="M204.152 21.4007H207.942V7.73373H204.152V21.4007ZM206.056 5.97197C207.186 5.97197 208.111 5.10889 208.111 4.05005C208.111 3.00011 207.186 2.13702 206.056 2.13702C204.935 2.13702 204.009 3.00011 204.009 4.05005C204.009 5.10889 204.935 5.97197 206.056 5.97197Z" fill="#F8F8F8"/>
<path d="M214.769 13.4995C214.778 11.7377 215.828 10.7056 217.358 10.7056C218.88 10.7056 219.796 11.7022 219.787 13.3749V21.4007H223.578V12.6987C223.578 9.51329 221.709 7.55578 218.862 7.55578C216.833 7.55578 215.365 8.55233 214.751 10.145H214.591V7.73373H210.979V21.4007H214.769V13.4995Z" fill="#F8F8F8"/>
<path d="M232.722 26.8106C236.629 26.8106 239.405 25.031 239.405 21.5342V7.73373H235.641V10.0294H235.499C234.991 8.91714 233.879 7.55578 231.592 7.55578C228.594 7.55578 226.058 9.887 226.058 14.5405C226.058 19.0873 228.523 21.205 231.601 21.205C233.781 21.205 235 20.1106 235.499 18.9805H235.659V21.4808C235.659 23.3583 234.458 24.0879 232.811 24.0879C231.139 24.0879 230.293 23.3583 229.982 22.5308L226.476 23.0023C226.93 25.1556 229.039 26.8106 232.722 26.8106ZM232.803 18.3577C230.943 18.3577 229.929 16.8807 229.929 14.5228C229.929 12.2004 230.925 10.5721 232.803 10.5721C234.644 10.5721 235.677 12.1292 235.677 14.5228C235.677 16.9341 234.627 18.3577 232.803 18.3577Z" fill="#F8F8F8"/>
<path d="M247.353 21.6321C248.492 21.6321 249.479 20.68 249.488 19.4966C249.479 18.331 248.492 17.379 247.353 17.379C246.178 17.379 245.208 18.331 245.217 19.4966C245.208 20.68 246.178 21.6321 247.353 21.6321Z" fill="#FF57B2"/>
<path d="M10.6866 0.0540161L0.370728 12.0648L10.6866 24.0735L13.1258 20.2345L6.17434 12.0627L13.1258 3.89099L10.6866 0.0540161ZM15.201 23.7867H19.7282L26.926 0.275261H22.3966L15.201 23.7867ZM31.8152 0.0540161L29.3759 3.89304L36.3274 12.0648L29.3759 20.2365L31.8152 24.0756L42.131 12.0668L31.8152 0.0540161Z" fill="#FF57B2"/>
</svg>
